# xmcd CD database file
#
# Track frame offsets:
#	182
#	19137
#	32475
#	63925
#	93580
#	109875
#	133432
#	155842
#	173625
#	219697
#	238172
#
# Disc length: 3485 seconds
#
# Revision: 2
# Processed by: cddbd v1.5.1PL0 Copyright (c) Steve Scherf et al.
# Submitted via: CDex 1.51
#
DISCID=9e0d9b0b
DTITLE=John Lee Hooker - Never Get Out Of These Blues Alive
DYEAR=1990
DGENRE=Blues
TTITLE0=Bumble Bee, Bumble Bee
TTITLE1=Hit The Road
TTITLE2=Country Boy
TTITLE3=Boogie With The Hook
TTITLE4=If You Take Care Of Me, I'll Take Care Of You
TTITLE5=(I Got) A Good 'Un
TTITLE6=T.B. Sheets
TTITLE7=Letter To My Baby
TTITLE8=Never Get Out Of these Blues Alive
TTITLE9=Baby I Love You
TTITLE10=Lonesome Mood
EXTD=1987 See For Miles Records SEE CD 89 YEAR: 1990
EXTT0=
EXTT1=
EXTT2=
EXTT3=
EXTT4=
EXTT5=
EXTT6=
EXTT7=
EXTT8=
EXTT9=
EXTT10=
PLAYORDER=
